<?xml version="1.0" encoding="utf-8"?>
<!-- Generator: Adobe Illustrator 21.0.0, SVG Export Plug-In . SVG Version: 6.00 Build 0)  -->
<svg version="1.1" id="sunFill" xmlns="http://www.w3.org/2000/svg" xmlns:xlink="http://www.w3.org/1999/xlink" x="0px" y="0px"
	 viewBox="0 0 70 70" style="enable-background:new 0 0 70 70;" xml:space="preserve">
<style type="text/css">
	.st0{fill:#FFFFFF;}
</style>
<g>
	<g>
		<g>
			<path d="M22.2,15h-1.6c-0.4,0-0.8-0.4-0.8-0.8s0.4-0.8,0.8-0.8h1.6c0.4,0,0.8,0.4,0.8,0.8S22.7,15,22.2,15z"/>
			<path d="M19.1,9.7c-0.3,0.3-0.8,0.3-1.1,0c-0.3-0.3-0.3-0.8,0-1.1l1.1-1.1c0.3-0.3,0.8-0.3,1.1,0c0.3,0.3,0.3,0.8,0,1.1L19.1,9.7
				z"/>
			<path d="M13.4,7.8c-0.4,0-0.8-0.4-0.8-0.8V5.4c0-0.4,0.4-0.8,0.8-0.8c0.4,0,0.8,0.4,0.8,0.8V7C14.2,7.5,13.9,7.8,13.4,7.8z"/>
			<path d="M7.8,9.7L6.7,8.6c-0.3-0.3-0.3-0.8,0-1.1c0.3-0.3,0.8-0.3,1.1,0l1.1,1.1c0.3,0.3,0.3,0.8,0,1.1C8.6,10,8.1,10,7.8,9.7z"
				/>
			<path d="M7,14.2C7,14.7,6.7,15,6.2,15H4.6c-0.4,0-0.8-0.4-0.8-0.8s0.4-0.8,0.8-0.8h1.6C6.7,13.4,7,13.8,7,14.2z"/>
			<path d="M7.8,18.7c0.3-0.3,0.8-0.3,1.1,0c0.3,0.3,0.3,0.8,0,1.1L7.8,21c-0.3,0.3-0.8,0.3-1.1,0c-0.3-0.3-0.3-0.8,0-1.1L7.8,18.7z
				"/>
			<path d="M13.4,20.6c0.4,0,0.8,0.4,0.8,0.8V23c0,0.4-0.4,0.8-0.8,0.8c-0.4,0-0.8-0.4-0.8-0.8v-1.6C12.6,21,13,20.6,13.4,20.6z"/>
			<path d="M19.1,18.7l1.1,1.1c0.3,0.3,0.3,0.8,0,1.1c-0.3,0.3-0.8,0.3-1.1,0L18,19.9c-0.3-0.3-0.3-0.8,0-1.1
				C18.3,18.4,18.8,18.4,19.1,18.7z"/>
		</g>
		<g>
			<circle cx="13.4" cy="14.2" r="4.8"/>
			<circle class="st0" cx="13.4" cy="14.2" r="3.2"/>
		</g>
	</g>
</g>
</svg>
