<?xml version="1.0" encoding="utf-8"?>
<!-- Generator: Adobe Illustrator 21.0.0, SVG Export Plug-In . SVG Version: 6.00 Build 0)  -->
<svg version="1.1" id="moonFill" xmlns="http://www.w3.org/2000/svg" xmlns:xlink="http://www.w3.org/1999/xlink" x="0px" y="0px"
	 viewBox="0 0 70 70" style="enable-background:new 0 0 70 70;" xml:space="preserve">
<style type="text/css">
	.st0{fill:#FFFFFF;}
</style>
<g>
	<g>
		<path d="M9.9,16.3c-2.9,0-5.3-2.4-5.3-5.3c0-2.9,2.4-5.3,5.3-5.3c0.3,0,0.7,0,1,0.1c-0.1,0.3-0.1,0.5-0.1,0.8
			c0,1.9,1.6,3.5,3.5,3.5c0.3,0,0.5,0,0.8-0.1c0.1,0.3,0.1,0.6,0.1,1C15.2,13.9,12.8,16.3,9.9,16.3z"/>
		<path class="st0" d="M9.1,7.6C7.6,8,6.4,9.4,6.4,11c0,1.9,1.6,3.5,3.5,3.5c1.7,0,3.1-1.2,3.4-2.7C11.2,11.4,9.5,9.7,9.1,7.6z"/>
	</g>
</g>
</svg>
