<?xml version="1.0" encoding="utf-8"?>
<!-- Generator: Adobe Illustrator 21.0.0, SVG Export Plug-In . SVG Version: 6.00 Build 0)  -->
<svg version="1.1" id="cloudSunFill" xmlns="http://www.w3.org/2000/svg" xmlns:xlink="http://www.w3.org/1999/xlink" x="0px"
	 y="0px" viewBox="0 0 70 70" style="enable-background:new 0 0 70 70;" xml:space="preserve">
<style type="text/css">
	.st0{fill:#FFFFFF;}
</style>
<g>
	<g>
		<g>
			<path d="M25.6,16.2H24c-0.4,0-0.8-0.4-0.8-0.8s0.4-0.8,0.8-0.8h1.6c0.4,0,0.8,0.4,0.8,0.8C26.4,15.9,26,16.2,25.6,16.2z"/>
			<path d="M22.4,10.9c-0.3,0.3-0.8,0.3-1.1,0c-0.3-0.3-0.3-0.8,0-1.1l1.1-1.1c0.3-0.3,0.8-0.3,1.1,0c0.3,0.3,0.3,0.8,0,1.1
				L22.4,10.9z"/>
			<path d="M16.8,9C16.3,9,16,8.7,16,8.2V6.6c0-0.4,0.4-0.8,0.8-0.8c0.4,0,0.8,0.4,0.8,0.8v1.6C17.6,8.7,17.2,9,16.8,9z"/>
			<path d="M11.1,10.9L10,9.8c-0.3-0.3-0.3-0.8,0-1.1c0.3-0.3,0.8-0.3,1.1,0l1.1,1.1c0.3,0.3,0.3,0.8,0,1.1
				C11.9,11.2,11.4,11.2,11.1,10.9z"/>
			<path d="M10.4,15.4c0,0.4-0.4,0.8-0.8,0.8H8c-0.4,0-0.8-0.4-0.8-0.8s0.4-0.8,0.8-0.8h1.6C10,14.6,10.4,15,10.4,15.4z"/>
			<path d="M11.1,19.9c0.3-0.3,0.8-0.3,1.1,0c0.3,0.3,0.3,0.8,0,1.1l-1.1,1.1c-0.3,0.3-0.8,0.3-1.1,0c-0.3-0.3-0.3-0.8,0-1.1
				L11.1,19.9z"/>
			<path d="M16.8,21.8c0.4,0,0.8,0.4,0.8,0.8v1.6c0,0.4-0.4,0.8-0.8,0.8c-0.4,0-0.8-0.4-0.8-0.8v-1.6C16,22.2,16.3,21.8,16.8,21.8z"
				/>
			<path d="M22.4,19.9l1.1,1.1c0.3,0.3,0.3,0.8,0,1.1c-0.3,0.3-0.8,0.3-1.1,0l-1.1-1.1c-0.3-0.3-0.3-0.8,0-1.1
				C21.6,19.6,22.1,19.6,22.4,19.9z"/>
		</g>
		<g>
			<circle cx="16.8" cy="15.4" r="4.8"/>
			<circle class="st0" cx="16.8" cy="15.4" r="3.2"/>
		</g>
	</g>
	<g>
		<path d="M11.2,25c-3.5,0-6.4-2.9-6.4-6.4c0-3.5,2.9-6.4,6.4-6.4c2.4,0,4.5,1.3,5.6,3.3c0.3,0,0.5-0.1,0.8-0.1
			c2.7,0,4.8,2.1,4.8,4.8c0,2.6-2.1,4.8-4.8,4.8C16.5,25,12.5,25,11.2,25z"/>
		<path class="st0" d="M17.6,23.4c1.8,0,3.2-1.4,3.2-3.2c0-1.8-1.4-3.2-3.2-3.2c-0.6,0-1.2,0.2-1.7,0.5c-0.5-2.1-2.4-3.7-4.7-3.7
			c-2.7,0-4.8,2.1-4.8,4.8s2.1,4.8,4.8,4.8C12.6,23.4,16.4,23.4,17.6,23.4z"/>
	</g>
</g>
</svg>
