<?xml version="1.0" encoding="utf-8"?>
<!-- Generator: Adobe Illustrator 21.0.0, SVG Export Plug-In . SVG Version: 6.00 Build 0)  -->
<svg version="1.1" id="cloudMoonFill" xmlns="http://www.w3.org/2000/svg" xmlns:xlink="http://www.w3.org/1999/xlink" x="0px"
	 y="0px" viewBox="0 0 70 70" style="enable-background:new 0 0 70 70;" xml:space="preserve">
<style type="text/css">
	.st0{fill:#FFFFFF;}
</style>
<g>
	<g>
		<path d="M16.4,14.9c-2.7,0-4.8-2.1-4.8-4.8c0-2.7,2.1-4.8,4.8-4.8c0.3,0,0.6,0,0.9,0.1c-0.1,0.2-0.1,0.5-0.1,0.7
			c0,1.8,1.4,3.2,3.2,3.2c0.2,0,0.5,0,0.7-0.1c0.1,0.3,0.1,0.6,0.1,0.9C21.2,12.7,19.1,14.9,16.4,14.9z"/>
		<path class="st0" d="M15.7,7c-1.4,0.3-2.5,1.6-2.5,3.1c0,1.8,1.4,3.2,3.2,3.2c1.5,0,2.8-1.1,3.1-2.5C17.6,10.4,16.1,8.9,15.7,7z"
			/>
	</g>
	<g>
		<path d="M9.6,20.9c-3.5,0-6.4-2.9-6.4-6.4c0-3.5,2.9-6.4,6.4-6.4c2.4,0,4.5,1.3,5.6,3.3c0.3,0,0.5-0.1,0.8-0.1
			c2.7,0,4.8,2.1,4.8,4.8c0,2.6-2.1,4.8-4.8,4.8C14.9,20.9,10.9,20.9,9.6,20.9z"/>
		<path class="st0" d="M16,19.3c1.8,0,3.2-1.4,3.2-3.2c0-1.8-1.4-3.2-3.2-3.2c-0.6,0-1.2,0.2-1.7,0.5c-0.5-2.1-2.4-3.7-4.7-3.7
			c-2.7,0-4.8,2.1-4.8,4.8s2.1,4.8,4.8,4.8C11.1,19.3,14.8,19.3,16,19.3z"/>
	</g>
</g>
</svg>
