<?xml version="1.0" encoding="utf-8"?>
<!-- Generator: Adobe Illustrator 21.0.0, SVG Export Plug-In . SVG Version: 6.00 Build 0)  -->
<svg version="1.1" id="cloudFill" xmlns="http://www.w3.org/2000/svg" xmlns:xlink="http://www.w3.org/1999/xlink" x="0px" y="0px"
	 viewBox="0 0 70 70" style="enable-background:new 0 0 70 70;" xml:space="preserve">
<style type="text/css">
	.st0{fill:#FFFFFF;}
</style>
<g>
	<g>
		<path d="M11.5,18.7c-3.5,0-6.4-2.9-6.4-6.4S8,5.9,11.5,5.9c2.4,0,4.5,1.3,5.6,3.3c0.3,0,0.5-0.1,0.8-0.1c2.6,0,4.8,2.2,4.8,4.8
			s-2.2,4.8-4.8,4.8C16.8,18.7,12.8,18.7,11.5,18.7z"/>
		<path class="st0" d="M17.9,17.1c1.8,0,3.2-1.4,3.2-3.2s-1.4-3.2-3.2-3.2c-0.6,0-1.2,0.2-1.7,0.5c-0.5-2.1-2.4-3.7-4.7-3.7
			c-2.6,0-4.8,2.2-4.8,4.8s2.2,4.8,4.8,4.8C13,17.1,16.7,17.1,17.9,17.1z"/>
	</g>
</g>
</svg>
