<?xml version="1.0" encoding="utf-8"?>
<!-- Generator: Adobe Illustrator 21.0.0, SVG Export Plug-In . SVG Version: 6.00 Build 0)  -->
<svg version="1.1" id="cloud" xmlns="http://www.w3.org/2000/svg" xmlns:xlink="http://www.w3.org/1999/xlink" x="0px" y="0px"
	 viewBox="0 0 70 70" style="enable-background:new 0 0 70 70;" xml:space="preserve">
<style type="text/css">
	.st0{clip-path:url(#SVGID_2_);}
	.st1{fill:#FFFFFF;}
</style>
<g>
	<g>
		<defs>
			<path id="SVGID_1_" d="M0,0v28h28V0H0z M18,18.7c-1.2,0-5,0-6.4,0c-2.7,0-4.8-2.1-4.8-4.8s2.1-4.8,4.8-4.8c2.3,0,4.2,1.6,4.7,3.7
				c0.5-0.3,1.1-0.5,1.7-0.5c1.8,0,3.2,1.4,3.2,3.2C21.2,17.2,19.7,18.7,18,18.7z"/>
		</defs>
		<clipPath id="SVGID_2_">
			<use xlink:href="#SVGID_1_"  style="overflow:visible;"/>
		</clipPath>
		<g class="st0">
			<path d="M11.6,20.3c-3.5,0-6.4-2.9-6.4-6.4S8,7.5,11.6,7.5c2.4,0,4.5,1.3,5.6,3.3c0.3,0,0.5-0.1,0.8-0.1c2.7,0,4.8,2.1,4.8,4.8
				c0,2.6-2.1,4.8-4.8,4.8C16.9,20.3,12.9,20.3,11.6,20.3z"/>
		</g>
	</g>
</g>
<path class="st1" d="M18,18.6c1.8,0,3.2-1.4,3.2-3.2s-1.4-3.2-3.2-3.2c-0.6,0-1.2,0.2-1.7,0.5C15.8,10.6,13.8,9,11.6,9
	c-2.6,0-4.8,2.2-4.8,4.8s2.2,4.8,4.8,4.8C13,18.6,16.8,18.6,18,18.6z"/>
</svg>
