<?xml version="1.0" encoding="utf-8"?>
<!-- Generator: Adobe Illustrator 21.0.0, SVG Export Plug-In . SVG Version: 6.00 Build 0)  -->
<svg version="1.1" id="cloudFill" xmlns="http://www.w3.org/2000/svg" xmlns:xlink="http://www.w3.org/1999/xlink" x="0px" y="0px"
	 viewBox="0 0 70 70" style="enable-background:new 0 0 70 70;" xml:space="preserve">
<style type="text/css">
	.st0{fill:#FFFFFF;}
</style>
<path d="M19.7,8.9c-0.3,0-0.5,0-0.7,0.1c-1-1.8-2.9-3-5.1-3C10.6,6,8,8.6,8,11.9s2.6,5.9,5.9,5.9c1.2,0,4.9,0,5.9,0
	c2.4,0,4.4-2,4.4-4.4C24.1,10.9,22.1,8.9,19.7,8.9z"/>
<g>
	<path d="M10.7,19.9c-3.2,0-5.9-2.6-5.9-5.9s2.6-5.9,5.9-5.9c2.2,0,4.1,1.2,5.1,3c0.2,0,0.5-0.1,0.7-0.1c2.4,0,4.4,2,4.4,4.4
		c0,2.4-2,4.4-4.4,4.4C15.6,19.9,11.9,19.9,10.7,19.9z"/>
	<path class="st0" d="M16.6,18.4c1.6,0,2.9-1.3,2.9-2.9c0-1.6-1.3-2.9-2.9-2.9c-0.6,0-1.1,0.2-1.6,0.5c-0.5-2-2.2-3.4-4.3-3.4
		c-2.4,0-4.4,2-4.4,4.4c0,2.4,2,4.4,4.4,4.4C12,18.4,15.5,18.4,16.6,18.4z"/>
</g>
</svg>
