<?xml version="1.0" encoding="utf-8"?>
<!-- Generator: Adobe Illustrator 21.0.0, SVG Export Plug-In . SVG Version: 6.00 Build 0)  -->
<svg version="1.1" id="cloudFill" xmlns="http://www.w3.org/2000/svg" xmlns:xlink="http://www.w3.org/1999/xlink" x="0px" y="0px"
	 viewBox="0 0 70 70" style="enable-background:new 0 0 70 70;" xml:space="preserve">
<style type="text/css">
	.st0{fill:#FFFFFF;}
</style>
<path d="M19,8.5c-0.2,0-0.5,0-0.8,0.1c-1-1.8-2.9-3-5.1-3c-3.2,0-5.9,2.6-5.9,5.9s2.6,5.9,5.9,5.9c1.2,0,4.8,0,5.9,0
	c2.4,0,4.4-2,4.4-4.4C23.4,10.5,21.4,8.5,19,8.5z"/>
<g>
	<path d="M10,19.4c-3.2,0-5.9-2.6-5.9-5.9S6.7,7.7,10,7.7c2.2,0,4.1,1.2,5.1,3c0.2,0,0.5-0.1,0.8-0.1c2.4,0,4.4,2,4.4,4.4
		s-2,4.4-4.4,4.4C14.8,19.4,11.1,19.4,10,19.4z"/>
	<path class="st0" d="M15.9,18c1.6,0,2.9-1.3,2.9-2.9c0-1.6-1.3-2.9-2.9-2.9c-0.6,0-1.1,0.2-1.6,0.5c-0.4-2-2.2-3.4-4.3-3.4
		c-2.4,0-4.4,2-4.4,4.4S7.5,18,10,18C11.3,18,14.7,18,15.9,18z"/>
</g>
</svg>
