<?xml version="1.0" encoding="utf-8"?>
<!-- Generator: Adobe Illustrator 21.0.0, SVG Export Plug-In . SVG Version: 6.00 Build 0)  -->
<svg version="1.1" id="cloudRain" xmlns="http://www.w3.org/2000/svg" xmlns:xlink="http://www.w3.org/1999/xlink" x="0px" y="0px"
	 viewBox="0 0 70 70" style="enable-background:new 0 0 70 70;" xml:space="preserve">
<style type="text/css">
	.st0{fill:#FFFFFF;}
	.st1{clip-path:url(#SVGID_2_);}
</style>
<path class="st0" d="M8.4,19.4c0,0-2.3-1.9-2.3-5.6s3.3-5.6,5.3-5.6s5.3,2,5.3,3.3c0,0,5.4-0.4,5.4,3.7s-2.5,4.1-2.5,4.1H8.4z"/>
<g>
	<g>
		<path d="M10.8,15.5c0.4,0,0.8,0.4,0.8,0.8v6.4c0,0.4-0.4,0.8-0.8,0.8S10,23.1,10,22.7v-6.4C10,15.8,10.3,15.5,10.8,15.5z"/>
		<path d="M14,17.1c0.4,0,0.8,0.4,0.8,0.8v6.4c0,0.4-0.4,0.8-0.8,0.8s-0.8-0.4-0.8-0.8v-6.4C13.2,17.4,13.5,17.1,14,17.1z"/>
		<path d="M17.2,15.5c0.4,0,0.8,0.4,0.8,0.8v6.4c0,0.4-0.4,0.8-0.8,0.8s-0.8-0.4-0.8-0.8v-6.4C16.4,15.8,16.7,15.5,17.2,15.5z"/>
		<path d="M10.8,15.5c0.4,0,0.8,0.4,0.8,0.8v6.4c0,0.4-0.4,0.8-0.8,0.8S10,23.1,10,22.7v-6.4C10,15.8,10.3,15.5,10.8,15.5z"/>
		<path d="M14,17.1c0.4,0,0.8,0.4,0.8,0.8v6.4c0,0.4-0.4,0.8-0.8,0.8s-0.8-0.4-0.8-0.8v-6.4C13.2,17.4,13.5,17.1,14,17.1z"/>
		<path d="M17.2,15.5c0.4,0,0.8,0.4,0.8,0.8v6.4c0,0.4-0.4,0.8-0.8,0.8s-0.8-0.4-0.8-0.8v-6.4C16.4,15.8,16.7,15.5,17.2,15.5z"/>
	</g>
	<g>
		<defs>
			<path id="SVGID_1_" d="M0,0v28h28V0H0z M18,18.7c-1.2,0-5,0-6.4,0c-2.7,0-4.8-2.1-4.8-4.8s2.1-4.8,4.8-4.8c2.3,0,4.2,1.6,4.7,3.7
				c0.5-0.3,1.1-0.5,1.7-0.5c1.8,0,3.2,1.4,3.2,3.2C21.2,17.2,19.7,18.7,18,18.7z"/>
		</defs>
		<clipPath id="SVGID_2_">
			<use xlink:href="#SVGID_1_"  style="overflow:visible;"/>
		</clipPath>
		<g class="st1">
			<path d="M19.6,20v-1.8c1-0.6,1.6-1.6,1.6-2.8c0-1.8-1.4-3.2-3.2-3.2c-0.6,0-1.2,0.2-1.7,0.5c-0.5-2.1-2.4-3.7-4.7-3.7
				c-2.7,0-4.8,2.1-4.8,4.8c0,1.4,0.6,2.7,1.6,3.6v2c-1.9-1.1-3.2-3.2-3.2-5.5c0-3.5,2.9-6.4,6.4-6.4c2.4,0,4.5,1.3,5.6,3.3
				c0.3,0,0.5-0.1,0.8-0.1c2.7,0,4.8,2.1,4.8,4.8C22.8,17.5,21.4,19.3,19.6,20z"/>
		</g>
	</g>
</g>
</svg>
