<?xml version="1.0" encoding="utf-8"?>
<!-- Generator: Adobe Illustrator 21.0.0, SVG Export Plug-In . SVG Version: 6.00 Build 0)  -->
<svg version="1.1" id="cloudLightningSun" xmlns="http://www.w3.org/2000/svg" xmlns:xlink="http://www.w3.org/1999/xlink" x="0px"
	 y="0px" viewBox="0 0 70 70" style="enable-background:new 0 0 70 70;" xml:space="preserve">
<style type="text/css">
	.st0{fill:none;}
	.st1{fill:#FFFFFF;}
</style>
<g>
	<g>
		<path class="st0" d="M17.2,7.5c-0.9,0-1.7,0.4-2.3,0.9c0.9,0.6,1.7,1.4,2.3,2.4c0.3,0,0.5-0.1,0.8-0.1c0.9,0,1.6,0.2,2.3,0.6
			c0-0.2,0.1-0.4,0.1-0.6C20.4,8.9,19,7.5,17.2,7.5z"/>
		<path class="st0" d="M16.3,12.8c-0.3-1.2-1.1-2.3-2.2-3c-0.1,0.3-0.1,0.6-0.1,0.9c0,1.8,1.4,3.2,3.2,3.2c0.9,0,1.8-0.5,2.4-1.2
			c-0.5-0.3-1-0.4-1.6-0.4C17.4,12.3,16.8,12.5,16.3,12.8z"/>
		<path class="st0" d="M0,0v28h28V0H0z M21.8,5l1.1-1.1c0.3-0.3,0.8-0.3,1.1,0c0.3,0.3,0.3,0.8,0,1.1l-1.1,1.1
			c-0.3,0.3-0.8,0.3-1.1,0C21.5,5.8,21.5,5.3,21.8,5z M16.4,1.8c0-0.4,0.4-0.8,0.8-0.8C17.7,1,18,1.4,18,1.8v1.6
			c0,0.5-0.3,0.8-0.8,0.8c-0.4,0-0.8-0.4-0.8-0.8V1.8z M10.4,3.9c0.3-0.3,0.8-0.3,1.1,0L12.7,5c0.3,0.3,0.3,0.8,0,1.1
			c-0.3,0.3-0.8,0.3-1.1,0L10.4,5C10.1,4.7,10.1,4.2,10.4,3.9z M24,17.4c-0.3,0.3-0.8,0.3-1.1,0L22.5,17c-0.6,1.9-2.4,3.3-4.5,3.3
			c-0.1,0-0.3,0-0.4,0l1.4-1.8c1.3-0.4,2.2-1.6,2.2-3c0-0.6-0.2-1.2-0.5-1.7c-0.9,1-2.1,1.6-3.5,1.6c-0.1,0-0.3,0-0.4,0l-2,3.3h1.6
			v-0.9c0-0.4,0.4-0.8,0.8-0.8c0.4,0,0.8,0.4,0.8,0.8v1.6c0,0.4-0.4,0.8-0.8,0.8c-0.2,0-0.4-0.1-0.6-0.3l-4.2,5.2l1.4-4.8h-2.6
			l1.4-3.9l-1,1c-0.3,0.3-0.8,0.3-1.1,0c-0.3-0.3-0.3-0.8,0-1.1l1.1-1.1c0.3-0.3,0.8-0.3,1.1,0c0.1,0.1,0.2,0.2,0.2,0.4l0.3-0.9h1.5
			c-1.4-0.8-2.3-2.4-2.3-4.1c0-0.5,0.1-0.9,0.2-1.4c-0.3-0.1-0.7-0.1-1-0.1c-0.9,0-1.8,0.3-2.5,0.7H10c0.5,0,0.8,0.4,0.8,0.8
			c0,0.4-0.4,0.8-0.8,0.8H8.4c-0.3,0-0.5-0.2-0.6-0.4c-0.6,0.8-1,1.8-1,2.9c0,2.2,1.5,4,3.4,4.6L9.7,20c-2.6-0.8-4.5-3.2-4.5-6.1
			c0-3.5,2.9-6.4,6.4-6.4c0.6,0,1.2,0.1,1.8,0.2c0.9-1.2,2.3-1.9,3.8-1.9c2.7,0,4.8,2.1,4.8,4.8c0,0.6-0.1,1.2-0.3,1.8
			c0.6,0.7,1,1.7,1.1,2.7c0,0,0.1,0,0.1,0.1l1.1,1.1C24.3,16.6,24.3,17.1,24,17.4z M26,11.4h-1.6c-0.4,0-0.8-0.4-0.8-0.8
			c0-0.4,0.4-0.8,0.8-0.8H26c0.4,0,0.8,0.4,0.8,0.8C26.8,11.1,26.5,11.4,26,11.4z"/>
		<path d="M26,9.8h-1.6c-0.4,0-0.8,0.4-0.8,0.8c0,0.4,0.4,0.8,0.8,0.8H26c0.5,0,0.8-0.3,0.8-0.8C26.8,10.2,26.4,9.8,26,9.8z"/>
		<path d="M22.9,6.1L24,5c0.3-0.3,0.3-0.8,0-1.1c-0.3-0.3-0.8-0.3-1.1,0L21.8,5c-0.3,0.3-0.3,0.8,0,1.1C22.1,6.4,22.6,6.4,22.9,6.1z
			"/>
		<path d="M17.2,4.2c0.5,0,0.8-0.3,0.8-0.8V1.8C18,1.4,17.7,1,17.2,1c-0.4,0-0.8,0.4-0.8,0.8v1.6C16.4,3.8,16.8,4.2,17.2,4.2z"/>
		<path d="M11.6,6.1c0.3,0.3,0.8,0.3,1.1,0C13,5.8,13,5.3,12.7,5l-1.2-1.1c-0.3-0.3-0.8-0.3-1.1,0c-0.3,0.3-0.3,0.8,0,1.1L11.6,6.1z
			"/>
		<path d="M7.8,11c0.2,0.2,0.4,0.4,0.6,0.4H10c0.4,0,0.8-0.4,0.8-0.8c0-0.4-0.3-0.8-0.8-0.8H9.1C8.6,10.1,8.1,10.5,7.8,11z"/>
		<path d="M12.7,15.2c-0.3-0.3-0.8-0.3-1.1,0l-1.1,1.1c-0.3,0.3-0.3,0.8,0,1.1c0.3,0.3,0.8,0.3,1.1,0l1-1l0.3-0.8
			C12.9,15.4,12.8,15.3,12.7,15.2z"/>
		<path d="M22.9,15.2c0,0-0.1-0.1-0.1-0.1c0,0.1,0,0.3,0,0.4c0,0.5-0.1,1.1-0.3,1.5l0.4,0.4c0.3,0.3,0.8,0.3,1.1,0
			c0.3-0.3,0.3-0.8,0-1.1L22.9,15.2z"/>
		<path d="M17.2,7.5c1.8,0,3.2,1.4,3.2,3.2c0,0.2,0,0.4-0.1,0.6c0.5,0.3,0.9,0.6,1.3,1.1c0.2-0.6,0.3-1.1,0.3-1.8
			c0-2.7-2.1-4.8-4.8-4.8c-1.6,0-3,0.8-3.8,1.9c0.6,0.2,1.1,0.4,1.6,0.7C15.5,7.9,16.3,7.5,17.2,7.5z"/>
		<path d="M19.6,12.7c-0.6,0.7-1.5,1.2-2.4,1.2c-1.8,0-3.2-1.4-3.2-3.2c0-0.3,0.1-0.6,0.1-0.9c-0.5-0.3-1-0.5-1.5-0.6
			c-0.1,0.4-0.2,0.9-0.2,1.4c0,1.7,0.9,3.3,2.3,4.1h2.5l-0.4,0.7c0.1,0,0.3,0,0.4,0c1.4,0,2.7-0.6,3.5-1.6
			C20.5,13.4,20.1,13,19.6,12.7z"/>
		<path d="M12.9,15.6l-0.3,0.8l0.1-0.1C12.9,16.1,13,15.8,12.9,15.6z"/>
		<path d="M14.7,14.7c0.6,0.4,1.3,0.6,2.1,0.7l0.4-0.7H14.7z"/>
		<path class="st1" d="M9.9,19.2c0,0-4-1-4-5.2s3.2-5.7,5.8-5.7s4.9,2.6,4.9,3.4c0,0,5.4-0.9,5.4,4.1s-3.6,3.6-3.6,3.6L9.9,19.2z"/>
		<path d="M17.2,10.8c-0.5-1-1.3-1.8-2.3-2.4c-0.4,0.4-0.6,0.9-0.8,1.4c1.1,0.7,1.9,1.7,2.2,3c0.5-0.3,1.1-0.5,1.7-0.5
			c0.6,0,1.1,0.2,1.6,0.4c0.4-0.4,0.6-0.9,0.7-1.4c-0.7-0.4-1.5-0.6-2.3-0.6C17.7,10.7,17.5,10.8,17.2,10.8z"/>
		<path d="M21.8,15.2c0.2-0.3,0.6-0.3,1-0.1c-0.1-1.1-0.5-2-1.1-2.7c-0.2,0.5-0.5,1-0.9,1.4c0.3,0.5,0.5,1.1,0.5,1.7
			c0,1.4-0.9,2.6-2.2,3l-1.4,1.8c0.1,0,0.3,0,0.4,0c2.2,0,3.9-1.3,4.5-3.3l-0.7-0.7C21.5,16,21.5,15.5,21.8,15.2z"/>
		<path d="M11.6,7.5c-3.5,0-6.4,2.9-6.4,6.4c0,2.9,1.9,5.3,4.5,6.1l0.5-1.5c-1.9-0.6-3.4-2.4-3.4-4.6c0-1.1,0.4-2.1,1-2.9
			c-0.1-0.1-0.2-0.3-0.2-0.4c0-0.4,0.4-0.8,0.8-0.8h0.7c0.7-0.4,1.6-0.7,2.5-0.7c0.4,0,0.7,0,1,0.1c0.2-0.5,0.4-1,0.7-1.5
			C12.8,7.6,12.2,7.5,11.6,7.5z"/>
		<path d="M7.6,10.6c0,0.1,0.1,0.3,0.2,0.4c0.4-0.5,0.8-0.9,1.3-1.2H8.4C8,9.8,7.6,10.2,7.6,10.6z"/>
		<path d="M22.8,15.1c-0.3-0.2-0.8-0.2-1,0.1c-0.3,0.3-0.3,0.8,0,1.1l0.7,0.7c0.2-0.5,0.3-1,0.3-1.5C22.8,15.4,22.8,15.2,22.8,15.1z
			"/>
		<path d="M14.9,8.4c-0.5-0.3-1-0.5-1.6-0.7c-0.3,0.4-0.6,0.9-0.7,1.5c0.5,0.1,1,0.3,1.5,0.6C14.3,9.3,14.5,8.8,14.9,8.4z"/>
		<path d="M20.3,11.3c-0.1,0.5-0.4,1-0.7,1.4c0.5,0.3,0.8,0.6,1.1,1.1c0.4-0.4,0.7-0.9,0.9-1.4C21.3,11.9,20.8,11.6,20.3,11.3z"/>
		<path d="M11.2,20.3h2.6l-1.4,4.8l4.2-5.2c-0.1-0.1-0.2-0.3-0.2-0.5v-0.7h-1.6l1-4.3L11.2,20.3z"/>
		<path d="M16.6,19.9l1-1.2h-1.2v0.7C16.4,19.6,16.5,19.8,16.6,19.9z"/>
	</g>
</g>
</svg>
