<?xml version="1.0" encoding="utf-8"?>
<!-- Generator: Adobe Illustrator 21.0.0, SVG Export Plug-In . SVG Version: 6.00 Build 0)  -->
<svg version="1.1" id="cloudSnowAlt" xmlns="http://www.w3.org/2000/svg" xmlns:xlink="http://www.w3.org/1999/xlink" x="0px"
	 y="0px" viewBox="0 0 70 70" style="enable-background:new 0 0 70 70;" xml:space="preserve">
<style type="text/css">
	.st0{fill:#FFFFFF;}
	.st1{clip-path:url(#SVGID_2_);}
</style>
<path class="st0" d="M9.2,19.5c0,0-3.2-2-3.2-5.7s3.3-5.6,5.3-5.6s5.3,2,5.3,3.3c0,0,5.4-0.4,5.4,3.7s-3.3,4.2-3.3,4.2H9.2z"/>
<g>
	<g>
		<g>
			<defs>
				<path id="SVGID_1_" d="M0,0v28h28V0H0z M14,20.3c-0.4,0-0.8-0.4-0.8-0.8c0-0.4,0.4-0.8,0.8-0.8s0.8,0.4,0.8,0.8
					C14.8,19.9,14.4,20.3,14,20.3z"/>
			</defs>
			<clipPath id="SVGID_2_">
				<use xlink:href="#SVGID_1_"  style="overflow:visible;"/>
			</clipPath>
			<g class="st1">
				<path d="M11.2,17.9c0.2-0.4,0.7-0.5,1.1-0.3l0.9,0.5v-1c0-0.4,0.4-0.8,0.8-0.8s0.8,0.4,0.8,0.8v1l0.9-0.5
					c0.4-0.2,0.9-0.1,1.1,0.3c0.2,0.4,0.1,0.9-0.3,1.1l-0.9,0.5l0.9,0.5c0.4,0.2,0.5,0.7,0.3,1.1c-0.2,0.4-0.7,0.5-1.1,0.3l-0.9-0.5
					v1c0,0.4-0.4,0.8-0.8,0.8s-0.8-0.4-0.8-0.8v-1l-0.9,0.5c-0.4,0.2-0.9,0.1-1.1-0.3c-0.2-0.4-0.1-0.9,0.3-1.1l0.9-0.5l-0.9-0.5
					C11.1,18.7,11,18.2,11.2,17.9z"/>
			</g>
		</g>
	</g>
	<g>
		<path d="M18.8,20.2v-1.6c1.4-0.4,2.4-1.6,2.4-3.1c0-1.8-1.4-3.2-3.2-3.2c-0.6,0-1.2,0.2-1.7,0.5c-0.5-2.1-2.4-3.7-4.7-3.7
			c-2.7,0-4.8,2.1-4.8,4.8c0,1.8,1,3.3,2.4,4.2v1.8c-2.3-1-4-3.2-4-5.9c0-3.5,2.9-6.4,6.4-6.4c2.4,0,4.5,1.3,5.6,3.3
			c0.3,0,0.5-0.1,0.8-0.1c2.7,0,4.8,2.1,4.8,4.8C22.8,17.8,21.1,19.8,18.8,20.2z"/>
	</g>
</g>
</svg>
