<?xml version="1.0" encoding="utf-8"?>
<!-- Generator: Adobe Illustrator 21.0.0, SVG Export Plug-In . SVG Version: 6.00 Build 0)  -->
<svg version="1.1" id="cloudFog" xmlns="http://www.w3.org/2000/svg" xmlns:xlink="http://www.w3.org/1999/xlink" x="0px" y="0px"
	 viewBox="0 0 70 70" style="enable-background:new 0 0 70 70;" xml:space="preserve">
<style type="text/css">
	.st0{fill:#FFFFFF;}
</style>
<g>
	<path class="st0" d="M5.4,11.3c0,0,0.2-5.4,5.5-5.4s5.4,3.4,5.4,3.4s3.6-0.8,4.7,2H5.4z"/>
	<g>
		<path d="M21.5,14.5h-16c-0.4,0-0.8-0.4-0.8-0.8c0-0.4,0.4-0.8,0.8-0.8h16c0.4,0,0.8,0.4,0.8,0.8C22.3,14.2,21.9,14.5,21.5,14.5z"
			/>
		<path d="M21.5,17.7h-16c-0.4,0-0.8-0.4-0.8-0.8s0.4-0.8,0.8-0.8h16c0.4,0,0.8,0.4,0.8,0.8C22.3,17.4,21.9,17.7,21.5,17.7z"/>
		<path d="M5.5,19.3h16c0.4,0,0.8,0.4,0.8,0.8c0,0.4-0.4,0.8-0.8,0.8h-16c-0.4,0-0.8-0.4-0.8-0.8C4.7,19.7,5.1,19.3,5.5,19.3z"/>
	</g>
	<g>
		<path d="M17.5,9.7c-0.6,0-1.2,0.2-1.7,0.5c-0.5-2.1-2.4-3.7-4.7-3.7c-2.7,0-4.8,2.1-4.8,4.8H4.7c0-3.5,2.9-6.4,6.4-6.4
			c2.4,0,4.5,1.3,5.6,3.3c0.3,0,0.5-0.1,0.8-0.1c2.1,0,3.9,1.3,4.5,3.2h-1.8C19.7,10.4,18.7,9.7,17.5,9.7z"/>
	</g>
</g>
</svg>
